<svg width="26" height="30" viewBox="0 0 26 30" fill="none" xmlns="http://www.w3.org/2000/svg">
<path d="M20.8479 29.4063L0.658986 16.1082C0.419355 15.9499 0.250015 15.7784 0.150968 15.5937C0.0503226 15.409 0 15.2111 0 15C0 14.7889 0.0503226 14.591 0.150968 14.4063C0.250015 14.2216 0.419355 14.0501 0.658986 13.8918L20.8479 0.55409C21.4071 0.184696 22.106 0 22.9447 0C23.7834 0 24.5023 0.197889 25.1014 0.593668C25.7005 0.989446 26 1.45119 26 1.97889C26 2.5066 25.7005 2.96834 25.1014 3.36412L7.48848 15L25.1014 26.6359C25.6605 27.0053 25.9401 27.4602 25.9401 28.0005C25.9401 28.542 25.6406 29.0106 25.0415 29.4063C24.4424 29.8021 23.7435 30 22.9447 30C22.1459 30 21.447 29.8021 20.8479 29.4063Z" fill="black"/>
</svg>
